<?xml version="1.0" encoding="utf-8"?>
<!-- Generator: Adobe Illustrator 25.0.0, SVG Export Plug-In . SVG Version: 6.00 Build 0)  -->
<svg version="1.1" id="Layer_1" xmlns="http://www.w3.org/2000/svg" xmlns:xlink="http://www.w3.org/1999/xlink" x="0px" y="0px"
	 viewBox="0 0 100 28" style="enable-background:new 0 0 100 28;" xml:space="preserve">
<g>
	<path d="M5.67,14.13c-0.27,1.34,0.08,1.96,0.92,1.96c0.71,0,1.3-0.52,1.62-1.51l2.42,0.27c-0.7,2.16-2.35,3.43-4.47,3.43
		c-2.33,0-3.49-1.65-3.04-3.98l0.43-2.19c0.45-2.33,2.26-3.98,4.58-3.98c2.12,0,3.26,1.27,3.12,3.43l-2.51,0.27
		c0.04-0.99-0.32-1.51-1.04-1.51c-0.84,0-1.44,0.62-1.71,1.96L5.67,14.13z"/>
	<path d="M17.99,15.25c-0.34,1.72-1.9,3.03-3.8,3.03s-2.96-1.3-2.62-3.03l0.25-1.29c0.34-1.72,1.9-3.03,3.8-3.03s2.96,1.3,2.62,3.03
		L17.99,15.25z M15.93,14.02c0.17-0.87-0.15-1.23-0.67-1.23c-0.52,0-0.98,0.36-1.15,1.23l-0.22,1.18c-0.17,0.87,0.15,1.23,0.67,1.23
		c0.52,0,0.98-0.36,1.15-1.23L15.93,14.02z"/>
	<path d="M25.47,15.25c-0.34,1.72-1.9,3.03-3.8,3.03s-2.96-1.3-2.62-3.03l0.25-1.29c0.34-1.72,1.9-3.03,3.8-3.03s2.96,1.3,2.62,3.03
		L25.47,15.25z M23.41,14.02c0.17-0.87-0.15-1.23-0.67-1.23c-0.52,0-0.98,0.36-1.15,1.23l-0.22,1.18c-0.17,0.87,0.15,1.23,0.67,1.23
		c0.52,0,0.98-0.36,1.15-1.23L23.41,14.02z"/>
	<path d="M33.48,11.4c-0.24,1.19-0.73,2.02-1.85,2.83l1.33,3.88h-2.44l-0.77-2.72l-0.77,0.48l-0.43,2.24h-2.33l1.93-9.97h2.33
		l-1.05,5.39l0.39-0.24c0.83-0.49,1.29-0.98,1.44-1.81l0.08-0.38h2.19L33.48,11.4z"/>
	<path d="M35.23,11.1h2.3l-1.36,7h-2.3L35.23,11.1z M35.8,8.14h2.3l-0.39,2.02h-2.3L35.8,8.14z"/>
	<path d="M41.95,18.11l0.81-4.23c0.15-0.74-0.14-1.09-0.69-1.09c-0.42,0-0.77,0.27-1.04,0.66l-0.9,4.67h-2.3l1.36-7h2.3l-0.13,0.6
		c0.42-0.46,1.04-0.77,1.81-0.77c1.48,0,2.26,1.01,1.92,2.76l-0.85,4.41H41.95z"/>
	<path d="M47.88,18.28c-1.37,0-2.3-0.95-1.92-2.9l0.31-1.54c0.38-1.95,1.67-2.9,3.04-2.9c0.69,0,1.23,0.24,1.46,0.69l0.11-0.52h2.3
		l-1.43,7.33c-0.34,1.74-1.65,2.93-3.7,2.93c-1.44,0-2.38-0.7-2.58-2.03l2.12-0.48c0.08,0.5,0.34,0.73,0.8,0.73
		c0.48,0,0.9-0.31,1.08-1.22l0.15-0.77C49.2,18.04,48.57,18.28,47.88,18.28z M50.44,13.35c-0.11-0.32-0.35-0.56-0.74-0.56
		c-0.57,0-0.99,0.32-1.18,1.23L48.3,15.2c-0.18,0.91,0.13,1.23,0.7,1.23c0.39,0,0.71-0.24,0.95-0.56L50.44,13.35z"/>
	<path d="M56.86,13.26l-0.94,4.85h-2.42L55.4,8.3h2l1.68,4.83l3.56-4.83h2l-1.91,9.81h-2.42l0.94-4.85l-1.86,2.52h-1.65L56.86,13.26
		z"/>
	<path d="M68.08,18.11l0.14-0.74c-0.48,0.59-1.13,0.91-1.93,0.91c-1.23,0-2.05-0.81-1.79-2.1l0.03-0.13
		c0.25-1.26,1.33-2.19,3.52-2.19h0.85l0.06-0.24c0.11-0.6-0.17-0.9-0.69-0.9c-0.41,0-0.83,0.21-1.11,0.64l-1.83-0.43
		c0.74-1.18,1.91-2,3.46-2c1.96,0,2.76,1.19,2.44,2.79l-0.84,4.38H68.08z M68.5,15.9l0.11-0.55h-1c-0.49,0-0.84,0.22-0.91,0.55
		l-0.01,0.08c-0.06,0.31,0.2,0.5,0.6,0.5C67.77,16.48,68.25,16.26,68.5,15.9z"/>
	<path d="M74.97,15.48l-0.55-0.13c-1.42-0.32-2-0.99-1.77-2.24c0.24-1.23,1.42-2.17,3.12-2.17c1.51,0,2.45,0.71,2.52,2.06
		l-2.09,0.24c-0.03-0.38-0.24-0.63-0.6-0.63c-0.35,0-0.6,0.2-0.64,0.45c-0.06,0.28,0.08,0.45,0.66,0.57l0.55,0.13
		c1.4,0.32,2,0.99,1.76,2.24c-0.25,1.3-1.49,2.28-3.32,2.28c-1.61,0-2.56-0.76-2.69-2.21l2.19-0.27c0.06,0.53,0.31,0.81,0.77,0.81
		c0.38,0,0.67-0.18,0.73-0.5C75.67,15.81,75.57,15.62,74.97,15.48z"/>
	<path d="M81.94,15.48c-0.11,0.57,0.04,0.78,0.57,0.78h0.87l-0.35,1.85h-1.42c-1.75,0-2.35-0.7-2-2.45l0.52-2.7h-0.91l0.36-1.85
		h0.91l0.38-1.99h2.3L82.8,11.1h1.54l-0.36,1.85h-1.54L81.94,15.48z"/>
	<path d="M88.41,15.78l2.31,0.14c-0.53,1.37-1.99,2.35-3.64,2.35c-1.89,0-2.96-1.3-2.62-3.03l0.25-1.29
		c0.34-1.72,1.91-3.03,3.8-3.03c1.83,0,2.96,1.29,2.65,2.91l-0.28,1.43h-4.12l-0.03,0.1c-0.13,0.66,0.18,1.05,0.71,1.05
		C87.85,16.43,88.21,16.23,88.41,15.78z M88.83,13.79c0.13-0.6-0.15-1.01-0.69-1.01s-0.98,0.41-1.11,1.01v0.06h1.79V13.79z"/>
	<path d="M92.99,11.1h2.3l-0.17,0.87c0.57-0.71,1.25-1.04,1.95-1.04c0.29,0,0.56,0.04,0.74,0.14l-0.35,1.82
		c-0.17-0.07-0.46-0.11-0.76-0.11c-0.78,0-1.44,0.34-1.92,0.92l-0.85,4.4h-2.3L92.99,11.1z"/>
</g>
<g>
</g>
<g>
</g>
<g>
</g>
<g>
</g>
<g>
</g>
<g>
</g>
</svg>
