<?xml version="1.0" encoding="utf-8"?>
<!-- Generator: Adobe Illustrator 25.0.0, SVG Export Plug-In . SVG Version: 6.00 Build 0)  -->
<svg version="1.1" id="Layer_1" xmlns="http://www.w3.org/2000/svg" xmlns:xlink="http://www.w3.org/1999/xlink" x="0px" y="0px"
	 viewBox="0 0 100 28" style="enable-background:new 0 0 100 28;" xml:space="preserve">
<style type="text/css">
	.st0{fill:#1F1F1F;}
</style>
<g>
	<path class="st0" d="M21.62,13.29h-3.77l-1.24,6.46h-4.09l3.13-16.1h4.09l-1.2,6.05h3.77l1.2-6.05h4.09l-3.13,16.1h-4.09
		L21.62,13.29z"/>
	<path class="st0" d="M33.14,8.25l-1.36,6.94c-0.23,1.22,0.23,1.79,1.13,1.79c0.69,0,1.29-0.44,1.7-1.08l1.5-7.66h3.77l-2.23,11.5
		h-3.77l0.18-0.99c-0.69,0.76-1.7,1.26-2.97,1.26c-2.44,0-3.7-1.66-3.15-4.53l1.43-7.24H33.14z"/>
	<path class="st0" d="M46.92,19.75l1.33-6.94c0.25-1.22-0.23-1.79-1.13-1.79c-0.69,0-1.26,0.44-1.7,1.08l-1.47,7.66h-3.77l2.23-11.5
		h3.77l-0.21,0.99c0.69-0.76,1.7-1.26,2.97-1.26c2.44,0,3.7,1.66,3.15,4.53l-1.4,7.24H46.92z"/>
	<path class="st0" d="M56.67,20.03c-2.25,0-3.77-1.56-3.15-4.76l0.51-2.53c0.62-3.2,2.74-4.76,4.99-4.76c1.13,0,2.02,0.39,2.39,1.13
		l0.18-0.85h3.77l-2.35,12.03c-0.55,2.85-2.71,4.81-6.07,4.81c-2.37,0-3.91-1.15-4.23-3.33l3.47-0.78c0.14,0.83,0.55,1.2,1.31,1.2
		c0.78,0,1.47-0.51,1.77-2l0.25-1.26C58.83,19.64,57.8,20.03,56.67,20.03z M60.88,11.93c-0.18-0.53-0.58-0.92-1.22-0.92
		c-0.94,0-1.63,0.53-1.93,2.02l-0.37,1.93c-0.3,1.49,0.21,2.02,1.15,2.02c0.64,0,1.17-0.39,1.56-0.92L60.88,11.93z"/>
	<path class="st0" d="M67.89,8.25h3.77l-0.28,1.43c0.94-1.17,2.05-1.7,3.2-1.7c0.48,0,0.92,0.07,1.22,0.23l-0.58,2.99
		c-0.28-0.11-0.76-0.18-1.24-0.18c-1.29,0-2.37,0.55-3.15,1.52l-1.4,7.22h-3.77L67.89,8.25z"/>
	<path class="st0" d="M78.89,18.97L76.61,8.25h3.96l0.9,5.86l2.87-5.86h3.96l-6.78,13.2c-1.22,2.41-2.58,3.15-5.56,3.15h-1.1
		l0.6-3.04h0.78c0.99,0,1.47-0.28,1.96-1.2L78.89,18.97z"/>
</g>
<g>
</g>
<g>
</g>
<g>
</g>
<g>
</g>
<g>
</g>
<g>
</g>
</svg>
